<svg width="154" height="65" viewBox="0 0 154 65" fill="none" xmlns="http://www.w3.org/2000/svg">
<path d="M0.760498 0.319336V15.188H16.0682L0.760498 0.319336Z" fill="white"/>
<path d="M65.6255 14.0396L75.8306 24.8242L86.9287 14.231L65.6255 14.0396Z" fill="#FFD220"/>
<path d="M16.0692 15.188V46.0107H31.3131V28.9083L16.0692 15.188Z" fill="white"/>
<path d="M50.2549 0.319336V46.2661H65.4989V14.0396L50.2549 0.319336Z" fill="#FFD220"/>
<path d="M102.239 0.319336V46.2661H86.9948V14.0396L102.239 0.319336Z" fill="#FFD220"/>
<path d="M46.4934 0H16.0692V15.124H46.4934V0Z" fill="white"/>
<path d="M153.328 0.573242V15.4424H138.02L153.328 0.573242Z" fill="white"/>
<path d="M138.019 15.4438V46.2666H122.775V29.1641L138.019 15.4438Z" fill="white"/>
<path d="M107.574 15.3975L137.998 15.3975L137.998 0.272949L107.574 0.272949L107.574 15.3975Z" fill="white"/>
<path d="M3.23498 59.3122H1.03687V58.5154H6.33981V59.3122H4.1417V64.9266H3.23498V59.3122Z" fill="white"/>
<path d="M11.6236 64.9266L10.2407 62.9574C10.0697 62.9696 9.93537 62.9757 9.83768 62.9757H8.25321V64.9266H7.33733V58.5154H9.83768C10.6681 58.5154 11.3214 58.7138 11.7977 59.1107C12.2739 59.5076 12.512 60.0541 12.512 60.7502C12.512 61.2447 12.3899 61.666 12.1457 62.0141C11.9015 62.3621 11.5534 62.6155 11.1016 62.7742L12.6219 64.9266H11.6236ZM9.8102 62.1972C10.3903 62.1972 10.8329 62.0721 11.1382 61.8217C11.4435 61.5714 11.5962 61.2142 11.5962 60.7502C11.5962 60.2861 11.4435 59.932 11.1382 59.6877C10.8329 59.4374 10.3903 59.3122 9.8102 59.3122H8.25321V62.1972H9.8102Z" fill="white"/>
<path d="M18.0766 63.3238H14.6695L13.9643 64.9266H13.0209L15.9243 58.5154H16.831L19.7435 64.9266H18.7818L18.0766 63.3238ZM17.756 62.5911L16.373 59.4496L14.9901 62.5911H17.756Z" fill="white"/>
<path d="M20.6999 58.5154H23.4017C24.0795 58.5154 24.6809 58.6497 25.206 58.9184C25.7311 59.1871 26.1371 59.5656 26.4241 60.0541C26.7172 60.5364 26.8637 61.0921 26.8637 61.721C26.8637 62.3499 26.7172 62.9086 26.4241 63.397C26.1371 63.8794 25.7311 64.2549 25.206 64.5236C24.6809 64.7922 24.0795 64.9266 23.4017 64.9266H20.6999V58.5154ZM23.3468 64.1297C23.8657 64.1297 24.3206 64.029 24.7114 63.8275C25.1083 63.626 25.4136 63.3451 25.6273 62.9849C25.841 62.6185 25.9478 62.1972 25.9478 61.721C25.9478 61.2447 25.841 60.8265 25.6273 60.4662C25.4136 60.0999 25.1083 59.816 24.7114 59.6145C24.3206 59.413 23.8657 59.3122 23.3468 59.3122H21.6157V64.1297H23.3468Z" fill="white"/>
<path d="M32.9193 64.1297V64.9266H28.2666V58.5154H32.791V59.3122H29.1825V61.2814H32.3972V62.0599H29.1825V64.1297H32.9193Z" fill="white"/>
<path d="M42.806 64.9266L42.7968 60.2556L40.4796 64.1481H40.0583L37.7411 60.2831V64.9266H36.8619V58.5154H37.6129L40.2873 63.0215L42.925 58.5154H43.676L43.6852 64.9266H42.806Z" fill="white"/>
<path d="M49.6941 63.3238H46.287L45.5818 64.9266H44.6384L47.5418 58.5154H48.4485L51.361 64.9266H50.3993L49.6941 63.3238ZM49.3735 62.5911L47.9906 59.4496L46.6076 62.5911H49.3735Z" fill="white"/>
<path d="M56.6037 64.9266L55.2207 62.9574C55.0497 62.9696 54.9154 62.9757 54.8177 62.9757H53.2332V64.9266H52.3174V58.5154H54.8177C55.6481 58.5154 56.3014 58.7138 56.7777 59.1107C57.254 59.5076 57.4921 60.0541 57.4921 60.7502C57.4921 61.2447 57.37 61.666 57.1257 62.0141C56.8815 62.3621 56.5335 62.6155 56.0816 62.7742L57.602 64.9266H56.6037ZM54.7902 62.1972C55.3703 62.1972 55.813 62.0721 56.1183 61.8217C56.4236 61.5714 56.5762 61.2142 56.5762 60.7502C56.5762 60.2861 56.4236 59.932 56.1183 59.6877C55.813 59.4374 55.3703 59.3122 54.7902 59.3122H53.2332V62.1972H54.7902Z" fill="white"/>
<path d="M63.4138 61.6844H64.2931V64.1847C63.9756 64.4473 63.6061 64.6487 63.1848 64.7892C62.7635 64.9296 62.3239 64.9998 61.866 64.9998C61.2188 64.9998 60.6356 64.8594 60.1166 64.5785C59.5976 64.2916 59.1886 63.9008 58.8894 63.4062C58.5963 62.9055 58.4497 62.3438 58.4497 61.721C58.4497 61.0982 58.5963 60.5364 58.8894 60.0358C59.1886 59.5351 59.5976 59.1443 60.1166 58.8634C60.6418 58.5826 61.231 58.4421 61.8843 58.4421C62.3972 58.4421 62.8612 58.5276 63.2764 58.6986C63.6977 58.8634 64.0549 59.1077 64.348 59.4313L63.7802 59.9991C63.2673 59.5046 62.6475 59.2573 61.9209 59.2573C61.4325 59.2573 60.9928 59.3641 60.6021 59.5778C60.2174 59.7854 59.9151 60.0785 59.6953 60.4571C59.4755 60.8295 59.3656 61.2508 59.3656 61.721C59.3656 62.185 59.4755 62.6063 59.6953 62.9849C59.9151 63.3574 60.2174 63.6504 60.6021 63.8641C60.9928 64.0778 61.4294 64.1847 61.9118 64.1847C62.4857 64.1847 62.9864 64.0473 63.4138 63.7726V61.6844Z" fill="white"/>
<path d="M66.0466 58.5154H66.9625V64.9266H66.0466V58.5154Z" fill="white"/>
<path d="M74.3955 58.5154V64.9266H73.6445L69.7978 60.1457V64.9266H68.8819V58.5154H69.6329L73.4796 63.2963V58.5154H74.3955Z" fill="white"/>
<path d="M80.0472 59.3122H77.8491V58.5154H83.152V59.3122H80.9539V64.9266H80.0472V59.3122Z" fill="white"/>
<path d="M88.8022 64.1297V64.9266H84.1495V58.5154H88.674V59.3122H85.0654V61.2814H88.2801V62.0599H85.0654V64.1297H88.8022Z" fill="white"/>
<path d="M93.1251 64.9998C92.484 64.9998 91.9039 64.8594 91.3849 64.5785C90.872 64.2916 90.469 63.9008 90.1759 63.4062C89.8829 62.9055 89.7363 62.3438 89.7363 61.721C89.7363 61.0982 89.8829 60.5395 90.1759 60.0449C90.469 59.5442 90.8751 59.1535 91.3941 58.8726C91.9131 58.5856 92.4931 58.4421 93.1342 58.4421C93.6349 58.4421 94.0928 58.5276 94.508 58.6986C94.9232 58.8634 95.2774 59.1107 95.5705 59.4404L94.9751 60.0175C94.4928 59.5107 93.8913 59.2573 93.1709 59.2573C92.6946 59.2573 92.2641 59.3641 91.8795 59.5778C91.4948 59.7915 91.1926 60.0877 90.9728 60.4662C90.759 60.8387 90.6522 61.2569 90.6522 61.721C90.6522 62.185 90.759 62.6063 90.9728 62.9849C91.1926 63.3574 91.4948 63.6504 91.8795 63.8641C92.2641 64.0778 92.6946 64.1847 93.1709 64.1847C93.8852 64.1847 94.4867 63.9283 94.9751 63.4154L95.5705 63.9924C95.2774 64.3221 94.9202 64.5724 94.4989 64.7434C94.0837 64.9144 93.6257 64.9998 93.1251 64.9998Z" fill="white"/>
<path d="M102.391 58.5154V64.9266H101.475V62.069H97.7929V64.9266H96.877V58.5154H97.7929V61.2722H101.475V58.5154H102.391Z" fill="white"/>
<path d="M109.823 58.5154V64.9266H109.072L105.225 60.1457V64.9266H104.31V58.5154H105.061L108.907 63.2963V58.5154H109.823Z" fill="white"/>
<path d="M114.636 64.9998C113.989 64.9998 113.406 64.8594 112.887 64.5785C112.368 64.2916 111.959 63.8977 111.66 63.397C111.367 62.8964 111.22 62.3377 111.22 61.721C111.22 61.1043 111.367 60.5456 111.66 60.0449C111.959 59.5442 112.368 59.1535 112.887 58.8726C113.406 58.5856 113.989 58.4421 114.636 58.4421C115.277 58.4421 115.858 58.5856 116.377 58.8726C116.896 59.1535 117.302 59.5442 117.595 60.0449C117.888 60.5395 118.034 61.0982 118.034 61.721C118.034 62.3438 117.888 62.9055 117.595 63.4062C117.302 63.9008 116.896 64.2916 116.377 64.5785C115.858 64.8594 115.277 64.9998 114.636 64.9998ZM114.636 64.1847C115.106 64.1847 115.528 64.0778 115.9 63.8641C116.279 63.6504 116.575 63.3574 116.789 62.9849C117.008 62.6063 117.118 62.185 117.118 61.721C117.118 61.2569 117.008 60.8387 116.789 60.4662C116.575 60.0877 116.279 59.7915 115.9 59.5778C115.528 59.3641 115.106 59.2573 114.636 59.2573C114.166 59.2573 113.739 59.3641 113.354 59.5778C112.976 59.7915 112.676 60.0877 112.457 60.4662C112.243 60.8387 112.136 61.2569 112.136 61.721C112.136 62.185 112.243 62.6063 112.457 62.9849C112.676 63.3574 112.976 63.6504 113.354 63.8641C113.739 64.0778 114.166 64.1847 114.636 64.1847Z" fill="white"/>
<path d="M119.434 58.5154H120.35V64.1297H123.821V64.9266H119.434V58.5154Z" fill="white"/>
<path d="M127.65 64.9998C127.003 64.9998 126.42 64.8594 125.901 64.5785C125.382 64.2916 124.973 63.8977 124.673 63.397C124.38 62.8964 124.234 62.3377 124.234 61.721C124.234 61.1043 124.38 60.5456 124.673 60.0449C124.973 59.5442 125.382 59.1535 125.901 58.8726C126.42 58.5856 127.003 58.4421 127.65 58.4421C128.291 58.4421 128.871 58.5856 129.39 58.8726C129.909 59.1535 130.315 59.5442 130.608 60.0449C130.901 60.5395 131.048 61.0982 131.048 61.721C131.048 62.3438 130.901 62.9055 130.608 63.4062C130.315 63.9008 129.909 64.2916 129.39 64.5785C128.871 64.8594 128.291 64.9998 127.65 64.9998ZM127.65 64.1847C128.12 64.1847 128.542 64.0778 128.914 63.8641C129.293 63.6504 129.589 63.3574 129.802 62.9849C130.022 62.6063 130.132 62.185 130.132 61.721C130.132 61.2569 130.022 60.8387 129.802 60.4662C129.589 60.0877 129.293 59.7915 128.914 59.5778C128.542 59.3641 128.12 59.2573 127.65 59.2573C127.18 59.2573 126.752 59.3641 126.368 59.5778C125.989 59.7915 125.69 60.0877 125.47 60.4662C125.257 60.8387 125.15 61.2569 125.15 61.721C125.15 62.185 125.257 62.6063 125.47 62.9849C125.69 63.3574 125.989 63.6504 126.368 63.8641C126.752 64.0778 127.18 64.1847 127.65 64.1847Z" fill="white"/>
<path d="M136.89 61.6844H137.769V64.1847C137.452 64.4473 137.082 64.6487 136.661 64.7892C136.24 64.9296 135.8 64.9998 135.342 64.9998C134.695 64.9998 134.112 64.8594 133.593 64.5785C133.074 64.2916 132.665 63.9008 132.365 63.4062C132.072 62.9055 131.926 62.3438 131.926 61.721C131.926 61.0982 132.072 60.5364 132.365 60.0358C132.665 59.5351 133.074 59.1443 133.593 58.8634C134.118 58.5826 134.707 58.4421 135.36 58.4421C135.873 58.4421 136.337 58.5276 136.752 58.6986C137.174 58.8634 137.531 59.1077 137.824 59.4313L137.256 59.9991C136.743 59.5046 136.124 59.2573 135.397 59.2573C134.908 59.2573 134.469 59.3641 134.078 59.5778C133.693 59.7854 133.391 60.0785 133.171 60.4571C132.952 60.8295 132.842 61.2508 132.842 61.721C132.842 62.185 132.952 62.6063 133.171 62.9849C133.391 63.3574 133.693 63.6504 134.078 63.8641C134.469 64.0778 134.905 64.1847 135.388 64.1847C135.962 64.1847 136.462 64.0473 136.89 63.7726V61.6844Z" fill="white"/>
<path d="M139.523 58.5154H140.439V64.9266H139.523V58.5154Z" fill="white"/>
<path d="M147.011 64.1297V64.9266H142.358V58.5154H146.882V59.3122H143.274V61.2814H146.489V62.0599H143.274V64.1297H147.011Z" fill="white"/>
<path d="M150.362 64.9998C149.88 64.9998 149.413 64.9266 148.961 64.78C148.515 64.6274 148.164 64.432 147.907 64.1939L148.246 63.4795C148.491 63.6993 148.802 63.8794 149.181 64.0198C149.565 64.1542 149.959 64.2213 150.362 64.2213C150.893 64.2213 151.29 64.1328 151.553 63.9557C151.815 63.7726 151.946 63.5314 151.946 63.2322C151.946 63.0124 151.873 62.8353 151.727 62.701C151.586 62.5605 151.409 62.4537 151.195 62.3804C150.988 62.3071 150.692 62.2247 150.307 62.1331C149.825 62.0171 149.434 61.9011 149.135 61.7851C148.842 61.6691 148.588 61.492 148.375 61.2539C148.167 61.0097 148.063 60.683 148.063 60.2739C148.063 59.932 148.152 59.6236 148.329 59.3489C148.512 59.0741 148.787 58.8543 149.153 58.6894C149.519 58.5246 149.974 58.4421 150.518 58.4421C150.896 58.4421 151.269 58.491 151.635 58.5887C152.001 58.6864 152.316 58.8268 152.578 59.01L152.276 59.7427C152.008 59.5717 151.721 59.4435 151.415 59.358C151.11 59.2664 150.811 59.2206 150.518 59.2206C149.999 59.2206 149.608 59.3153 149.345 59.5046C149.089 59.6938 148.961 59.9381 148.961 60.2373C148.961 60.4571 149.034 60.6372 149.181 60.7776C149.327 60.912 149.507 61.0188 149.721 61.0982C149.941 61.1715 150.237 61.2508 150.609 61.3363C151.092 61.4523 151.479 61.5683 151.772 61.6844C152.066 61.8004 152.316 61.9774 152.523 62.2156C152.737 62.4537 152.844 62.7742 152.844 63.1772C152.844 63.5131 152.752 63.8214 152.569 64.1023C152.386 64.377 152.108 64.5968 151.736 64.7617C151.363 64.9205 150.905 64.9998 150.362 64.9998Z" fill="white"/>
</svg>
