<svg width="53" height="59" viewBox="0 0 53 59" fill="none" xmlns="http://www.w3.org/2000/svg">
<path d="M52.734 0H0.761108V42H52.734V0Z" fill="black"/>
<path d="M0.761108 42.2636L26.9886 59L52.734 42.34L26.9886 31L0.761108 42.2636Z" fill="black"/>
<path d="M30.1328 20.8649H31.5285C31.5285 18.7928 33.2964 17.036 35.4366 17.036C37.5767 17.036 39.3447 18.7477 39.3447 20.8649H40.7404C40.6939 13.3423 34.5991 7.12613 26.9226 6.81081V6H25.5268V6.81081C17.8502 7.12613 11.7555 13.2973 11.7555 20.8649H13.1512C13.1512 18.7928 14.8726 17.036 17.0593 17.036C19.1994 17.036 20.9674 18.7477 20.9674 20.8649H22.3631C22.3631 18.973 23.7589 17.4414 25.5733 17.1261V31H26.9691V17.1261C28.737 17.4414 30.1328 18.973 30.1328 20.8649Z" fill="white"/>
<path d="M36.7425 37.6765V33.4191L34.2334 33.2756C34.0404 32.6538 33.7992 32.0319 33.4614 31.4579L35.1502 29.5923L32.1587 26.6264L30.2769 28.3007C29.6979 28.0137 29.1189 27.7267 28.4916 27.5353L28.3469 25H24.1008L23.956 27.5353C23.3288 27.7267 22.7498 27.918 22.1708 28.2528L20.289 26.5786L17.2974 29.5444L18.9862 31.4579C18.6967 32.0319 18.4072 32.6059 18.2625 33.2278L15.7534 33.3713V37.5809L18.2625 37.7244C18.4555 38.3462 18.6967 38.9203 19.0345 39.4943L17.3457 41.4077L20.3372 44.3736L22.219 42.6993C22.798 42.9863 23.377 43.2733 24.0043 43.4647L24.149 46H28.3951L28.5399 43.4647C29.1671 43.2733 29.7944 43.0342 30.3251 42.6993L32.2069 44.3736L35.1985 41.4077L33.4614 39.59C33.7509 39.0159 34.0404 38.3941 34.2334 37.7722L36.7425 37.6765ZM26.2238 39.0159C24.342 39.0159 22.7498 37.4852 22.7498 35.5718C22.7498 33.6583 24.2938 32.1276 26.2238 32.1276C28.1539 32.1276 29.6979 33.6583 29.6979 35.5718C29.6979 37.4852 28.1539 39.0159 26.2238 39.0159Z" fill="#FFCC00"/>
</svg>
