<svg width="69" height="52" viewBox="0 0 69 52" fill="none" xmlns="http://www.w3.org/2000/svg">
<path d="M51.2145 51.1858C44.7101 50.4421 39.3472 45.4749 38.0464 39.0468C36.9313 33.5483 38.8959 27.8905 43.1702 24.3312C45.3207 22.5249 47.7632 21.4093 50.5773 20.9046C51.6393 20.7187 54.2941 20.7187 55.3295 20.9046C58.1702 21.4093 60.6127 22.5249 62.7366 24.3312C64.4357 25.739 65.6835 27.3593 66.6658 29.4046C70.303 36.9749 67.1702 46.0858 59.6304 49.7515C58.0375 50.5218 56.3649 51.0265 54.6393 51.2124C53.9225 51.2921 51.9844 51.2921 51.2145 51.1858ZM54.7189 39.4187C54.7189 36.1515 54.7455 33.4687 54.772 33.4687C54.8251 33.4687 55.3295 33.9733 55.9667 34.6108L57.1083 35.753L58.3561 34.5046L59.6039 33.2562L56.3118 29.9358L53.0198 26.6155L49.7278 29.9358L46.4357 33.2562L47.6835 34.5046L48.9313 35.753L50.0729 34.6108C50.6835 33.9999 51.241 33.4687 51.2676 33.4687C51.3207 33.4687 51.3207 36.1515 51.3207 39.4187V45.3687H53.0464H54.772V39.4187H54.7189Z" fill="#FCCC12"/>
<path d="M26.5508 40.7202C26.0995 40.4546 25.4888 40.1093 25.1703 39.9765C24.8517 39.8171 24.5596 39.6577 24.5331 39.6046C24.48 39.5515 24.1349 39.3655 23.7101 39.153C23.3119 38.9405 22.7543 38.6483 22.5154 38.5155C22.2499 38.3562 21.9579 38.1968 21.7986 38.1171C21.6658 38.064 21.0818 37.7187 20.5242 37.3999C19.9402 37.0812 19.1968 36.6562 18.8517 36.4702C18.5065 36.3108 18.188 36.1249 18.1614 36.0983C18.1349 36.0718 17.949 35.9655 17.7632 35.8858C17.5508 35.7796 16.8871 35.4343 16.2765 35.089C15.6658 34.7437 14.8428 34.2655 14.4446 34.053C14.0464 33.8405 13.4623 33.5483 13.1968 33.389C12.9313 33.2296 12.48 32.9905 12.188 32.8577L11.6835 32.5921V28.289C11.6835 25.9249 11.7101 23.9858 11.7366 23.9858C11.7632 23.9858 12.3207 24.278 12.9579 24.6765C13.595 25.0749 14.2057 25.3937 14.2853 25.4202C14.3649 25.4468 14.6835 25.6062 15.0021 25.8187C15.2942 25.978 15.6658 26.1905 15.8251 26.2437C15.9844 26.2968 16.7809 26.7483 17.6304 27.2265C18.48 27.7046 19.6481 28.3421 20.1791 28.6343C20.7101 28.9265 21.4534 29.3249 21.8251 29.5108C22.1703 29.6968 22.9933 30.1483 23.657 30.5202C24.7986 31.1577 25.3561 31.4765 26.7632 32.1937L27.4534 32.5655L27.8517 32.353C28.0641 32.2202 28.5419 31.9546 28.9136 31.7687C29.2853 31.5827 29.7632 31.3171 29.9756 31.2108C30.7455 30.8124 33.2942 29.378 33.48 29.2718C33.5596 29.2187 33.9579 28.9796 34.3561 28.7937C35.5508 28.1827 36.2676 27.7843 36.5331 27.6249C36.6658 27.5452 36.772 27.4921 36.772 27.5187C36.772 27.5452 36.6127 27.9171 36.4003 28.3421C35.3384 30.5999 34.7809 33.0968 34.7809 35.7265V37.1608L34.1703 37.5062C33.8251 37.6921 33.2145 38.0108 32.8163 38.2233C32.418 38.4358 32.0198 38.6483 31.9933 38.7015C31.9402 38.7546 31.6216 38.914 31.2765 39.0999C30.3207 39.6046 28.7012 40.4812 27.8782 40.9593L27.5331 41.1452L26.5508 40.7202Z" fill="black"/>
<path d="M0.294064 38.4625V34.2125H2.78964H5.28521V25.6328V17.0266L4.70114 16.7344C4.14362 16.4422 1.96663 15.2734 0.98433 14.7422L0.506454 14.4766L1.75424 13.8125C2.44451 13.4406 3.42681 12.9094 3.95778 12.6172C4.48875 12.325 5.28521 11.9 5.68344 11.6609C6.08167 11.4484 6.6392 11.1562 6.85159 11.05C7.09052 10.9172 7.5684 10.6516 7.91353 10.4922C8.25867 10.3062 8.94893 9.93438 9.42681 9.66875C9.90468 9.40313 11.0463 8.81875 11.9224 8.31406C12.825 7.83594 13.7011 7.35781 13.887 7.25156C14.0728 7.14531 14.5507 6.87969 14.9489 6.69375C15.6392 6.32188 19.4091 4.30312 20.3383 3.79844C20.6038 3.66563 21.0286 3.42656 21.3206 3.26719C24.1082 1.75313 24.9578 1.32812 25.648 0.95625C26.0994 0.717187 26.6834 0.398438 26.9224 0.265625L27.3737 0L28.8604 0.796875C29.6834 1.22187 30.7188 1.80625 31.1967 2.07188C31.6746 2.3375 32.3649 2.70937 32.7365 2.92188C33.7188 3.42656 36.7985 5.1 38.2321 5.87031C38.4711 6.00313 39.4003 6.50781 40.356 7.0125C41.3118 7.51719 42.0817 7.96875 42.1348 7.96875C42.1879 7.99531 42.6126 8.23438 43.0905 8.47344C43.5684 8.73906 44.179 9.05781 44.4711 9.19062C44.7631 9.32344 45.5065 9.72188 46.1436 10.0672C46.7808 10.4125 47.8693 10.9969 48.533 11.3687C49.1967 11.7406 50.1259 12.2188 50.5773 12.4578C51.0286 12.6969 51.6657 13.0422 51.9578 13.2016C52.2498 13.3609 52.9135 13.7062 53.418 13.9719L54.3206 14.45L53.8162 14.6891C53.5507 14.8219 52.7542 15.2469 52.0374 15.6453C49.4357 17.0531 47.9489 17.8766 47.1259 18.3016C46.6746 18.5406 45.6923 19.0719 44.9489 19.4703C44.2056 19.8688 43.3029 20.3469 42.9578 20.5328C42.241 20.9313 41.5772 21.25 37.8073 23.2953C36.4268 24.0391 34.7277 24.9422 34.064 25.2875C33.4003 25.6328 32.0197 26.3766 30.9578 26.9609C29.8958 27.5187 28.8073 28.1297 28.5419 28.2625C28.2764 28.4219 27.9312 28.6078 27.7985 28.6609C27.6657 28.7406 27.533 28.8203 27.4268 28.8203C27.3737 28.8203 26.2587 28.2625 24.9578 27.5453C23.6569 26.8281 22.3029 26.1109 21.9047 25.925C21.5065 25.7391 20.5242 25.2078 19.7277 24.7562C18.9312 24.3312 17.7896 23.6938 17.1525 23.375C16.5419 23.0562 15.8516 22.6578 15.6126 22.5516C15.3737 22.4453 14.8958 22.1531 14.5242 21.9672C14.1525 21.7812 13.2233 21.25 12.4799 20.8516C11.7365 20.4531 10.8073 19.9484 10.4357 19.7891C10.064 19.6031 9.533 19.3375 9.26752 19.1781L8.73654 18.9125V30.7594V42.6062H4.48875H0.240967L0.294064 38.4625Z" fill="black"/>
</svg>
