<svg width="147" height="63" viewBox="0 0 147 63" fill="none" xmlns="http://www.w3.org/2000/svg">
<path d="M0.948486 0.305176V14.5268H15.5897L0.948486 0.305176Z" fill="black"/>
<path d="M62.9904 13.4282L72.7512 23.7434L83.3661 13.6113L62.9904 13.4282Z" fill="#FFD220"/>
<path d="M15.5903 14.5269V44.0077H30.1706V27.6498L15.5903 14.5269Z" fill="black"/>
<path d="M48.2881 0.305176V44.2517H62.8683V13.4281L48.2881 0.305176Z" fill="#FFD220"/>
<path d="M98.0082 0.305176V44.2517H83.428V13.4281L98.0082 0.305176Z" fill="#FFD220"/>
<path d="M44.6898 0H15.5903V14.4657H44.6898V0Z" fill="black"/>
<path d="M146.872 0.549316V14.7709H132.231L146.872 0.549316Z" fill="black"/>
<path d="M132.232 14.771V44.2518H117.651V27.8939L132.232 14.771Z" fill="black"/>
<path d="M103.112 14.7268L132.211 14.7268L132.211 0.261069L103.112 0.261069L103.112 14.7268Z" fill="black"/>
<path d="M3.13744 56.7294H1.03503V55.9673H6.10708V56.7294H4.00468V62.0993H3.13744V56.7294Z" fill="black"/>
<path d="M11.1608 62.0993L9.83809 60.2159C9.67457 60.2276 9.54609 60.2334 9.45265 60.2334H7.93716V62.0993H7.06116V55.9673H9.45265C10.2469 55.9673 10.8718 56.1571 11.3273 56.5367C11.7828 56.9163 12.0106 57.439 12.0106 58.1047C12.0106 58.5778 11.8938 58.9807 11.6602 59.3136C11.4266 59.6465 11.0937 59.8889 10.6615 60.0407L12.1157 62.0993H11.1608ZM9.42636 59.4888C9.98117 59.4888 10.4046 59.3691 10.6966 59.1297C10.9886 58.8902 11.1346 58.5486 11.1346 58.1047C11.1346 57.6609 10.9886 57.3222 10.6966 57.0886C10.4046 56.8491 9.98117 56.7294 9.42636 56.7294H7.93716V59.4888H9.42636Z" fill="black"/>
<path d="M17.3328 60.5663H14.0741L13.3996 62.0993H12.4973L15.2742 55.9673H16.1415L18.9271 62.0993H18.0073L17.3328 60.5663ZM17.0262 59.8655L15.7035 56.8608L14.3807 59.8655H17.0262Z" fill="black"/>
<path d="M19.8419 55.9673H22.4261C23.0743 55.9673 23.6496 56.0958 24.1518 56.3527C24.654 56.6097 25.0424 56.9718 25.3169 57.439C25.5972 57.9003 25.7374 58.4318 25.7374 59.0333C25.7374 59.6348 25.5972 60.1692 25.3169 60.6364C25.0424 61.0977 24.654 61.4569 24.1518 61.7139C23.6496 61.9708 23.0743 62.0993 22.4261 62.0993H19.8419V55.9673ZM22.3735 61.3372C22.8699 61.3372 23.305 61.2408 23.6788 61.0481C24.0584 60.8554 24.3504 60.5867 24.5548 60.2422C24.7592 59.8918 24.8614 59.4888 24.8614 59.0333C24.8614 58.5778 24.7592 58.1777 24.5548 57.8332C24.3504 57.4828 24.0584 57.2112 23.6788 57.0185C23.305 56.8258 22.8699 56.7294 22.3735 56.7294H20.7179V61.3372H22.3735Z" fill="black"/>
<path d="M31.5292 61.3372V62.0993H27.0791V55.9673H31.4066V56.7294H27.9551V58.6128H31.0299V59.3574H27.9551V61.3372H31.5292Z" fill="black"/>
<path d="M40.9854 62.0993L40.9767 57.6317L38.7604 61.3547H38.3574L36.1412 57.658V62.0993H35.3002V55.9673H36.0185L38.5764 60.2772L41.0993 55.9673H41.8176L41.8264 62.0993H40.9854Z" fill="black"/>
<path d="M47.5737 60.5663H44.3149L43.6404 62.0993H42.7381L45.515 55.9673H46.3823L49.168 62.0993H48.2482L47.5737 60.5663ZM47.267 59.8655L45.9443 56.8608L44.6215 59.8655H47.267Z" fill="black"/>
<path d="M54.1824 62.0993L52.8596 60.2159C52.6961 60.2276 52.5676 60.2334 52.4742 60.2334H50.9587V62.0993H50.0827V55.9673H52.4742C53.2684 55.9673 53.8933 56.1571 54.3488 56.5367C54.8043 56.9163 55.0321 57.439 55.0321 58.1047C55.0321 58.5778 54.9153 58.9807 54.6817 59.3136C54.4481 59.6465 54.1152 59.8889 53.6831 60.0407L55.1372 62.0993H54.1824ZM52.4479 59.4888C53.0027 59.4888 53.4261 59.3691 53.7181 59.1297C54.0101 58.8902 54.1561 58.5486 54.1561 58.1047C54.1561 57.6609 54.0101 57.3222 53.7181 57.0886C53.4261 56.8491 53.0027 56.7294 52.4479 56.7294H50.9587V59.4888H52.4479Z" fill="black"/>
<path d="M60.696 58.9983H61.537V61.3897C61.2333 61.6409 60.88 61.8336 60.477 61.9679C60.074 62.1022 59.6536 62.1694 59.2156 62.1694C58.5965 62.1694 58.0388 62.0351 57.5424 61.7664C57.046 61.4919 56.6547 61.1182 56.3686 60.6451C56.0882 60.1663 55.9481 59.629 55.9481 59.0333C55.9481 58.4376 56.0882 57.9003 56.3686 57.4215C56.6547 56.9426 57.046 56.5688 57.5424 56.3002C58.0446 56.0315 58.6082 55.8972 59.2331 55.8972C59.7236 55.8972 60.1675 55.979 60.5646 56.1425C60.9676 56.3002 61.3092 56.5338 61.5895 56.8433L61.0464 57.3864C60.5558 56.9134 59.9631 56.6769 59.2681 56.6769C58.8009 56.6769 58.3804 56.7791 58.0067 56.9835C57.6388 57.182 57.3497 57.4623 57.1394 57.8244C56.9292 58.1807 56.8241 58.5836 56.8241 59.0333C56.8241 59.4771 56.9292 59.8801 57.1394 60.2422C57.3497 60.5984 57.6388 60.8787 58.0067 61.0831C58.3804 61.2875 58.798 61.3897 59.2594 61.3897C59.8083 61.3897 60.2872 61.2583 60.696 60.9955V58.9983Z" fill="black"/>
<path d="M63.2142 55.9673H64.0902V62.0993H63.2142V55.9673Z" fill="black"/>
<path d="M71.1995 55.9673V62.0993H70.4812L66.802 57.5266V62.0993H65.926V55.9673H66.6443L70.3235 60.54V55.9673H71.1995Z" fill="black"/>
<path d="M76.6051 56.7294H74.5027V55.9673H79.5748V56.7294H77.4724V62.0993H76.6051V56.7294Z" fill="black"/>
<path d="M84.9789 61.3372V62.0993H80.5289V55.9673H84.8563V56.7294H81.4049V58.6128H84.4796V59.3574H81.4049V61.3372H84.9789Z" fill="black"/>
<path d="M89.1136 62.1694C88.5004 62.1694 87.9456 62.0351 87.4492 61.7664C86.9586 61.4919 86.5732 61.1182 86.2929 60.6451C86.0126 60.1663 85.8724 59.629 85.8724 59.0333C85.8724 58.4376 86.0126 57.9033 86.2929 57.4302C86.5732 56.9513 86.9615 56.5776 87.458 56.3089C87.9544 56.0345 88.5091 55.8972 89.1223 55.8972C89.6012 55.8972 90.0392 55.979 90.4364 56.1425C90.8335 56.3002 91.1722 56.5367 91.4525 56.8521L90.8831 57.4039C90.4218 56.9192 89.8465 56.6769 89.1574 56.6769C88.7019 56.6769 88.2901 56.7791 87.9222 56.9835C87.5543 57.1879 87.2652 57.4711 87.055 57.8332C86.8506 58.1894 86.7484 58.5895 86.7484 59.0333C86.7484 59.4771 86.8506 59.8801 87.055 60.2422C87.2652 60.5984 87.5543 60.8787 87.9222 61.0831C88.2901 61.2875 88.7019 61.3897 89.1574 61.3897C89.8407 61.3897 90.4159 61.1445 90.8831 60.6539L91.4525 61.2058C91.1722 61.5211 90.8306 61.7606 90.4276 61.9241C90.0305 62.0876 89.5925 62.1694 89.1136 62.1694Z" fill="black"/>
<path d="M97.9757 55.9673V62.0993H97.0997V59.3662H93.5782V62.0993H92.7022V55.9673H93.5782V58.6041H97.0997V55.9673H97.9757Z" fill="black"/>
<path d="M105.085 55.9673V62.0993H104.366L100.687 57.5266V62.0993H99.8111V55.9673H100.529L104.209 60.54V55.9673H105.085Z" fill="black"/>
<path d="M109.688 62.1694C109.069 62.1694 108.511 62.0351 108.015 61.7664C107.519 61.4919 107.127 61.1153 106.841 60.6364C106.561 60.1575 106.421 59.6231 106.421 59.0333C106.421 58.4435 106.561 57.9091 106.841 57.4302C107.127 56.9513 107.519 56.5776 108.015 56.3089C108.511 56.0345 109.069 55.8972 109.688 55.8972C110.301 55.8972 110.856 56.0345 111.353 56.3089C111.849 56.5776 112.237 56.9513 112.518 57.4302C112.798 57.9033 112.938 58.4376 112.938 59.0333C112.938 59.629 112.798 60.1663 112.518 60.6451C112.237 61.1182 111.849 61.4919 111.353 61.7664C110.856 62.0351 110.301 62.1694 109.688 62.1694ZM109.688 61.3897C110.138 61.3897 110.541 61.2875 110.897 61.0831C111.259 60.8787 111.542 60.5984 111.747 60.2422C111.957 59.8801 112.062 59.4771 112.062 59.0333C112.062 58.5895 111.957 58.1894 111.747 57.8332C111.542 57.4711 111.259 57.1879 110.897 56.9835C110.541 56.7791 110.138 56.6769 109.688 56.6769C109.239 56.6769 108.83 56.7791 108.462 56.9835C108.1 57.1879 107.814 57.4711 107.603 57.8332C107.399 58.1894 107.297 58.5895 107.297 59.0333C107.297 59.4771 107.399 59.8801 107.603 60.2422C107.814 60.5984 108.1 60.8787 108.462 61.0831C108.83 61.2875 109.239 61.3897 109.688 61.3897Z" fill="black"/>
<path d="M114.277 55.9673H115.153V61.3372H118.473V62.0993H114.277V55.9673Z" fill="black"/>
<path d="M122.135 62.1694C121.516 62.1694 120.959 62.0351 120.462 61.7664C119.966 61.4919 119.574 61.1153 119.288 60.6364C119.008 60.1575 118.868 59.6231 118.868 59.0333C118.868 58.4435 119.008 57.9091 119.288 57.4302C119.574 56.9513 119.966 56.5776 120.462 56.3089C120.959 56.0345 121.516 55.8972 122.135 55.8972C122.749 55.8972 123.303 56.0345 123.8 56.3089C124.296 56.5776 124.684 56.9513 124.965 57.4302C125.245 57.9033 125.385 58.4376 125.385 59.0333C125.385 59.629 125.245 60.1663 124.965 60.6451C124.684 61.1182 124.296 61.4919 123.8 61.7664C123.303 62.0351 122.749 62.1694 122.135 62.1694ZM122.135 61.3897C122.585 61.3897 122.988 61.2875 123.344 61.0831C123.706 60.8787 123.99 60.5984 124.194 60.2422C124.404 59.8801 124.509 59.4771 124.509 59.0333C124.509 58.5895 124.404 58.1894 124.194 57.8332C123.99 57.4711 123.706 57.1879 123.344 56.9835C122.988 56.7791 122.585 56.6769 122.135 56.6769C121.686 56.6769 121.277 56.7791 120.909 56.9835C120.547 57.1879 120.261 57.4711 120.05 57.8332C119.846 58.1894 119.744 58.5895 119.744 59.0333C119.744 59.4771 119.846 59.8801 120.05 60.2422C120.261 60.5984 120.547 60.8787 120.909 61.0831C121.277 61.2875 121.686 61.3897 122.135 61.3897Z" fill="black"/>
<path d="M130.973 58.9983H131.814V61.3897C131.51 61.6409 131.157 61.8336 130.754 61.9679C130.351 62.1022 129.93 62.1694 129.492 62.1694C128.873 62.1694 128.316 62.0351 127.819 61.7664C127.323 61.4919 126.931 61.1182 126.645 60.6451C126.365 60.1663 126.225 59.629 126.225 59.0333C126.225 58.4376 126.365 57.9003 126.645 57.4215C126.931 56.9426 127.323 56.5688 127.819 56.3002C128.321 56.0315 128.885 55.8972 129.51 55.8972C130 55.8972 130.444 55.979 130.841 56.1425C131.244 56.3002 131.586 56.5338 131.866 56.8433L131.323 57.3864C130.833 56.9134 130.24 56.6769 129.545 56.6769C129.078 56.6769 128.657 56.7791 128.283 56.9835C127.916 57.182 127.626 57.4623 127.416 57.8244C127.206 58.1807 127.101 58.5836 127.101 59.0333C127.101 59.4771 127.206 59.8801 127.416 60.2422C127.626 60.5984 127.916 60.8787 128.283 61.0831C128.657 61.2875 129.075 61.3897 129.536 61.3897C130.085 61.3897 130.564 61.2583 130.973 60.9955V58.9983Z" fill="black"/>
<path d="M133.491 55.9673H134.367V62.0993H133.491V55.9673Z" fill="black"/>
<path d="M140.653 61.3372V62.0993H136.203V55.9673H140.53V56.7294H137.079V58.6128H140.154V59.3574H137.079V61.3372H140.653Z" fill="black"/>
<path d="M143.858 62.1694C143.397 62.1694 142.95 62.0993 142.518 61.9591C142.092 61.8131 141.756 61.6263 141.511 61.3985L141.835 60.7152C142.068 60.9255 142.366 61.0977 142.728 61.2321C143.096 61.3605 143.473 61.4248 143.858 61.4248C144.366 61.4248 144.746 61.3401 144.997 61.1707C145.248 60.9955 145.374 60.7649 145.374 60.4787C145.374 60.2685 145.304 60.0991 145.164 59.9706C145.029 59.8363 144.86 59.7341 144.656 59.664C144.457 59.5939 144.174 59.5151 143.806 59.4275C143.344 59.3165 142.971 59.2056 142.684 59.0946C142.404 58.9837 142.162 58.8143 141.957 58.5865C141.759 58.3529 141.66 58.0405 141.66 57.6492C141.66 57.3222 141.744 57.0273 141.914 56.7645C142.089 56.5017 142.352 56.2914 142.702 56.1337C143.052 55.9761 143.488 55.8972 144.007 55.8972C144.369 55.8972 144.726 55.9439 145.076 56.0374C145.426 56.1308 145.727 56.2651 145.978 56.4403L145.689 57.1411C145.432 56.9776 145.158 56.855 144.866 56.7732C144.574 56.6856 144.288 56.6418 144.007 56.6418C143.511 56.6418 143.137 56.7323 142.886 56.9134C142.641 57.0944 142.518 57.328 142.518 57.6142C142.518 57.8244 142.588 57.9967 142.728 58.131C142.868 58.2595 143.041 58.3617 143.245 58.4376C143.455 58.5077 143.739 58.5836 144.095 58.6654C144.556 58.7763 144.927 58.8873 145.207 58.9983C145.488 59.1092 145.727 59.2786 145.926 59.5063C146.13 59.7341 146.232 60.0407 146.232 60.4261C146.232 60.7473 146.145 61.0423 145.969 61.3109C145.794 61.5737 145.529 61.7839 145.172 61.9416C144.816 62.0935 144.378 62.1694 143.858 62.1694Z" fill="black"/>
</svg>
