<svg width="53" height="54" viewBox="0 0 53 54" fill="none" xmlns="http://www.w3.org/2000/svg">
<path d="M52.3476 27.1976C52.3476 27.1611 52.3476 27.1976 52.3476 27.1976C52.3476 12.7178 40.8342 1.01691 26.6138 0.980347V27.1976H52.3476Z" fill="black"/>
<path d="M52.3476 27.673C52.3476 27.7095 52.3476 27.7827 52.3476 27.8192C52.3476 42.2625 40.8342 53.9634 26.6138 54V27.673H52.3476Z" fill="#FCCC12"/>
<path d="M0.483093 27.3073C0.483093 27.2708 0.483093 27.1976 0.483093 27.1611C0.483093 12.7544 11.9965 1.05348 26.2169 0.980347V27.3073H0.483093Z" fill="#FCCC12"/>
<path d="M0.483093 27.673C0.483093 27.7095 0.483093 27.7827 0.483093 27.8192C0.483093 42.2625 11.9965 53.9634 26.2169 54V27.673H0.483093Z" fill="black"/>
<path d="M7.26841 20.1406H4.63367V27.2342H7.26841V20.1406Z" fill="black"/>
<path d="M12.0686 15.7161H9.4339V27.0148H12.0686V15.7161Z" fill="white"/>
<path d="M16.8689 11.4015H14.2341V27.0514H16.8689V11.4015Z" fill="black"/>
<path d="M21.6332 8.22028H18.9984V27.0514H21.6332V8.22028Z" fill="white"/>
<path opacity="0.5" d="M52.3837 27.1611H52.456L52.4198 26.9417L52.3837 27.1611Z" fill="black"/>
<path d="M52.3115 24.7844L52.1672 23.6874C50.9039 14.8021 45.9232 9.82918 45.8149 9.71948L36.2505 18.6414L32.3886 12.7544L26.4333 19.0802L26.5416 27.1611L52.4559 27.3074C52.4198 26.5029 52.3837 25.5157 52.3115 24.7844Z" fill="white"/>
</svg>
