<svg width="46" height="57" viewBox="0 0 46 57" fill="none" xmlns="http://www.w3.org/2000/svg">
<path d="M17.7124 29.3464H3.08752V44.5204H17.7124V29.3464Z" fill="#FFCC00"/>
<path d="M28.1302 23.8878L25.0249 18.5293V6.46021H3.08752V29.2963C3.08752 31.8003 5.09094 33.8535 7.49503 33.8535H20.6174C23.0215 33.8535 25.0249 31.8003 25.0249 29.2963V25.7908H27.0283C27.4791 25.7908 27.8797 25.5404 28.1302 25.1898C28.3806 24.8393 28.3305 24.2884 28.1302 23.8878Z" fill="#FFCC00"/>
<path d="M0.483093 12.9705H26.4273C30.0334 12.9705 32.9384 10.0659 32.9384 6.46022V0H6.99418C3.38804 0 0.483093 2.90459 0.483093 6.5103V8.6637V12.9705Z" fill="black"/>
<path d="M12.8041 25.6406H2.28616C1.28446 25.6406 0.483093 24.8393 0.483093 23.8377V8.81396C0.483093 7.81238 1.28446 7.01111 2.28616 7.01111H12.8041C13.8058 7.01111 14.6071 7.81238 14.6071 8.81396V23.8377C14.6071 24.7892 13.8058 25.6406 12.8041 25.6406Z" fill="black"/>
<path d="M2.9873 34.2041L17.7124 44.5204L30.3339 53.084L2.73688 53.0339L2.9873 34.2041Z" fill="black"/>
<path d="M33.4892 56.4894C40.0504 56.4894 45.4596 51.0808 45.4596 44.4203C45.4596 37.7598 40.1004 32.3512 33.4892 32.3512C26.928 32.3512 21.5188 37.7598 21.5188 44.4203C21.5188 51.0808 26.928 56.4894 33.4892 56.4894Z" fill="#FFCC00"/>
<path d="M32.3872 49.9791L26.7776 44.3702L28.4805 42.6675L32.3371 46.5236L38.4976 39.813L40.3007 41.4656L32.3872 49.9791Z" fill="black"/>
</svg>
