<svg width="24" height="24" viewBox="0 0 24 24" fill="none" xmlns="http://www.w3.org/2000/svg">
<g clip-path="url(#clip0)">
<path d="M12.0011 23.9949C18.6271 23.9949 23.9986 18.6235 23.9986 11.9975C23.9986 5.37145 18.6271 0 12.0011 0C5.3751 0 0.00366211 5.37145 0.00366211 11.9975C0.00366211 18.6235 5.3751 23.9949 12.0011 23.9949Z" fill="white"/>
<path d="M23.311 8H16.537H0.683977C0.243192 9.25142 0 10.594 0 11.9975C0 13.3806 0.238125 14.7131 0.668778 15.9493H15.924H23.3262C23.7568 14.7131 23.9949 13.3806 23.9949 11.9975C24 10.594 23.7568 9.25142 23.311 8Z" fill="#0052B4"/>
<path d="M23.3111 8C23.3111 7.99493 23.3111 7.99493 23.306 7.98987C21.7759 3.65801 17.824 0.471184 13.0767 0.050665C12.7221 0.020266 12.3624 0 11.9976 0C6.77908 0 2.34083 3.33376 0.689149 7.98987C0.689149 7.99493 0.689149 7.99493 0.684082 8H16.5372H23.3111Z" fill="white"/>
<path d="M16.5422 15.9545H0.668823C0.67389 15.9647 0.678956 15.9748 0.678956 15.99C2.32557 20.6562 6.76889 24.0001 11.9975 24.0001C12.3623 24.0001 12.722 23.9799 13.0767 23.9495C13.0969 23.9393 13.1121 23.9292 13.1324 23.9191C13.1121 23.9292 13.0969 23.9393 13.0767 23.9495C17.8291 23.5239 21.786 20.3269 23.3161 15.9849C23.3211 15.9748 23.3211 15.9596 23.3262 15.9495H16.5422V15.9545Z" fill="#D80027"/>
</g>
<defs>
<clipPath id="clip0">
<rect width="24" height="24" fill="white"/>
</clipPath>
</defs>
</svg>
