<svg width="65" height="52" viewBox="0 0 65 52" fill="none" xmlns="http://www.w3.org/2000/svg">
<g clip-path="url(#clip0)">
<path d="M64.2301 0H28.5544V35.6944H64.2301V0Z" fill="#FCCC12"/>
<path d="M10.2393 29.8741H0.240967V51.7H10.2393V29.8741Z" fill="#FCCC12"/>
<path d="M46.415 6.5932L50.0508 14.0049L58.2312 15.1871L52.3231 20.9619L53.7319 29.1011L46.415 25.2361L39.0981 29.1011L40.5069 20.9619L34.5988 15.1871L42.7793 14.0049L46.415 6.5932Z" fill="white"/>
<path d="M40.0979 24.9633H25.2822L28.827 18.552C30.7358 15.0507 28.2362 10.822 24.2369 10.822L15.1475 25.0088V51.7H40.0979C40.4614 51.3362 40.6432 51.1543 41.0068 50.7906V25.8727L40.0979 24.9633Z" fill="black"/>
</g>
<defs>
<clipPath id="clip0">
<rect x="0.240967" width="63.9892" height="51.7" fill="white"/>
</clipPath>
</defs>
</svg>
