<svg width="90" height="28" viewBox="0 0 90 28" fill="none" xmlns="http://www.w3.org/2000/svg">
<path d="M0 0.187988V8.95469H9.03009L0 0.187988Z" fill="black"/>
<path d="M38.2654 8.27759L44.2854 14.6363L50.8322 8.39046L38.2654 8.27759Z" fill="#FFD220"/>
<path d="M9.20453 9.20459V27.3776H18.197V17.294L9.20453 9.20459Z" fill="black"/>
<path d="M29.1971 0.187988V27.2782H38.1896V8.27744L29.1971 0.187988Z" fill="#FFD220"/>
<path d="M59.8621 0.187988V27.2782H50.8696V8.27744L59.8621 0.187988Z" fill="#FFD220"/>
<path d="M26.9776 0H9.03026V8.9172H26.9776V0Z" fill="black"/>
<path d="M90.0002 0.338623V9.10533H80.9702L90.0002 0.338623Z" fill="black"/>
<path d="M80.9698 9.10522V27.2783H71.9774V17.1947L80.9698 9.10522Z" fill="black"/>
<path d="M63.0104 9.07812L80.9577 9.07812L80.9577 0.160913L63.0104 0.160913L63.0104 9.07812Z" fill="black"/>
</svg>
